<?xml version="1.0" encoding="utf-8" standalone="no"?>
<!DOCTYPE svg PUBLIC "-//W3C//DTD SVG 1.1//EN"
  "http://www.w3.org/Graphics/SVG/1.1/DTD/svg11.dtd">
<svg xmlns:xlink="http://www.w3.org/1999/xlink" width="320.25625pt" height="276.08125pt" viewBox="0 0 320.25625 276.08125" xmlns="http://www.w3.org/2000/svg" version="1.1">
 <metadata>
  <rdf:RDF xmlns:dc="http://purl.org/dc/elements/1.1/" xmlns:cc="http://creativecommons.org/ns#" xmlns:rdf="http://www.w3.org/1999/02/22-rdf-syntax-ns#">
   <cc:Work>
    <dc:type rdf:resource="http://purl.org/dc/dcmitype/StillImage"/>
    <dc:date>2023-06-15T15:33:43.735953</dc:date>
    <dc:format>image/svg+xml</dc:format>
    <dc:creator>
     <cc:Agent>
      <dc:title>Matplotlib v3.5.3, https://matplotlib.org/</dc:title>
     </cc:Agent>
    </dc:creator>
   </cc:Work>
  </rdf:RDF>
 </metadata>
 <defs>
  <style type="text/css">*{stroke-linejoin: round; stroke-linecap: butt}</style>
 </defs>
 <g id="figure_1">
  <g id="patch_1">
   <path d="M 0 276.08125 
L 320.25625 276.08125 
L 320.25625 0 
L 0 0 
L 0 276.08125 
z
" style="fill: none"/>
  </g>
  <g id="axes_1">
   <g id="patch_2">
    <path d="M 34.05625 224.64 
L 313.05625 224.64 
L 313.05625 7.2 
L 34.05625 7.2 
z
" style="fill: #ffffff"/>
   </g>
   <g id="matplotlib.axis_1">
    <g id="xtick_1">
     <g id="line2d_1">
      <defs>
       <path id="m21f9d4afd3" d="M 0 0 
L 0 2 
" style="stroke: #000000; stroke-width: 0.6"/>
      </defs>
      <g>
       <use xlink:href="#m21f9d4afd3" x="109.407032" y="224.64" style="stroke: #000000; stroke-width: 0.6"/>
      </g>
     </g>
     <g id="text_1">
      <!-- $\mathdefault{3\times10^{-1}}$ -->
      <g transform="translate(88.357032 237.638437)scale(0.1 -0.1)">
       <defs>
        <path id="DejaVuSans-33" d="M 2597 2516 
Q 3050 2419 3304 2112 
Q 3559 1806 3559 1356 
Q 3559 666 3084 287 
Q 2609 -91 1734 -91 
Q 1441 -91 1130 -33 
Q 819 25 488 141 
L 488 750 
Q 750 597 1062 519 
Q 1375 441 1716 441 
Q 2309 441 2620 675 
Q 2931 909 2931 1356 
Q 2931 1769 2642 2001 
Q 2353 2234 1838 2234 
L 1294 2234 
L 1294 2753 
L 1863 2753 
Q 2328 2753 2575 2939 
Q 2822 3125 2822 3475 
Q 2822 3834 2567 4026 
Q 2313 4219 1838 4219 
Q 1578 4219 1281 4162 
Q 984 4106 628 3988 
L 628 4550 
Q 988 4650 1302 4700 
Q 1616 4750 1894 4750 
Q 2613 4750 3031 4423 
Q 3450 4097 3450 3541 
Q 3450 3153 3228 2886 
Q 3006 2619 2597 2516 
z
" transform="scale(0.015625)"/>
        <path id="DejaVuSans-d7" d="M 4488 3438 
L 3059 2003 
L 4488 575 
L 4116 197 
L 2681 1631 
L 1247 197 
L 878 575 
L 2303 2003 
L 878 3438 
L 1247 3816 
L 2681 2381 
L 4116 3816 
L 4488 3438 
z
" transform="scale(0.015625)"/>
        <path id="DejaVuSans-31" d="M 794 531 
L 1825 531 
L 1825 4091 
L 703 3866 
L 703 4441 
L 1819 4666 
L 2450 4666 
L 2450 531 
L 3481 531 
L 3481 0 
L 794 0 
L 794 531 
z
" transform="scale(0.015625)"/>
        <path id="DejaVuSans-30" d="M 2034 4250 
Q 1547 4250 1301 3770 
Q 1056 3291 1056 2328 
Q 1056 1369 1301 889 
Q 1547 409 2034 409 
Q 2525 409 2770 889 
Q 3016 1369 3016 2328 
Q 3016 3291 2770 3770 
Q 2525 4250 2034 4250 
z
M 2034 4750 
Q 2819 4750 3233 4129 
Q 3647 3509 3647 2328 
Q 3647 1150 3233 529 
Q 2819 -91 2034 -91 
Q 1250 -91 836 529 
Q 422 1150 422 2328 
Q 422 3509 836 4129 
Q 1250 4750 2034 4750 
z
" transform="scale(0.015625)"/>
        <path id="DejaVuSans-2212" d="M 678 2272 
L 4684 2272 
L 4684 1741 
L 678 1741 
L 678 2272 
z
" transform="scale(0.015625)"/>
       </defs>
       <use xlink:href="#DejaVuSans-33" transform="translate(0 0.684375)"/>
       <use xlink:href="#DejaVuSans-d7" transform="translate(83.105469 0.684375)"/>
       <use xlink:href="#DejaVuSans-31" transform="translate(186.376953 0.684375)"/>
       <use xlink:href="#DejaVuSans-30" transform="translate(250 0.684375)"/>
       <use xlink:href="#DejaVuSans-2212" transform="translate(314.580078 38.965625)scale(0.7)"/>
       <use xlink:href="#DejaVuSans-31" transform="translate(373.232422 38.965625)scale(0.7)"/>
      </g>
     </g>
    </g>
    <g id="xtick_2">
     <g id="line2d_2">
      <g>
       <use xlink:href="#m21f9d4afd3" x="209.617984" y="224.64" style="stroke: #000000; stroke-width: 0.6"/>
      </g>
     </g>
     <g id="text_2">
      <!-- $\mathdefault{4\times10^{-1}}$ -->
      <g transform="translate(188.567984 237.638437)scale(0.1 -0.1)">
       <defs>
        <path id="DejaVuSans-34" d="M 2419 4116 
L 825 1625 
L 2419 1625 
L 2419 4116 
z
M 2253 4666 
L 3047 4666 
L 3047 1625 
L 3713 1625 
L 3713 1100 
L 3047 1100 
L 3047 0 
L 2419 0 
L 2419 1100 
L 313 1100 
L 313 1709 
L 2253 4666 
z
" transform="scale(0.015625)"/>
       </defs>
       <use xlink:href="#DejaVuSans-34" transform="translate(0 0.684375)"/>
       <use xlink:href="#DejaVuSans-d7" transform="translate(83.105469 0.684375)"/>
       <use xlink:href="#DejaVuSans-31" transform="translate(186.376953 0.684375)"/>
       <use xlink:href="#DejaVuSans-30" transform="translate(250 0.684375)"/>
       <use xlink:href="#DejaVuSans-2212" transform="translate(314.580078 38.965625)scale(0.7)"/>
       <use xlink:href="#DejaVuSans-31" transform="translate(373.232422 38.965625)scale(0.7)"/>
      </g>
     </g>
    </g>
    <g id="xtick_3">
     <g id="line2d_3">
      <g>
       <use xlink:href="#m21f9d4afd3" x="287.347637" y="224.64" style="stroke: #000000; stroke-width: 0.6"/>
      </g>
     </g>
     <g id="text_3">
      <!-- $\mathdefault{5\times10^{-1}}$ -->
      <g transform="translate(266.297637 237.638437)scale(0.1 -0.1)">
       <defs>
        <path id="DejaVuSans-35" d="M 691 4666 
L 3169 4666 
L 3169 4134 
L 1269 4134 
L 1269 2991 
Q 1406 3038 1543 3061 
Q 1681 3084 1819 3084 
Q 2600 3084 3056 2656 
Q 3513 2228 3513 1497 
Q 3513 744 3044 326 
Q 2575 -91 1722 -91 
Q 1428 -91 1123 -41 
Q 819 9 494 109 
L 494 744 
Q 775 591 1075 516 
Q 1375 441 1709 441 
Q 2250 441 2565 725 
Q 2881 1009 2881 1497 
Q 2881 1984 2565 2268 
Q 2250 2553 1709 2553 
Q 1456 2553 1204 2497 
Q 953 2441 691 2322 
L 691 4666 
z
" transform="scale(0.015625)"/>
       </defs>
       <use xlink:href="#DejaVuSans-35" transform="translate(0 0.684375)"/>
       <use xlink:href="#DejaVuSans-d7" transform="translate(83.105469 0.684375)"/>
       <use xlink:href="#DejaVuSans-31" transform="translate(186.376953 0.684375)"/>
       <use xlink:href="#DejaVuSans-30" transform="translate(250 0.684375)"/>
       <use xlink:href="#DejaVuSans-2212" transform="translate(314.580078 38.965625)scale(0.7)"/>
       <use xlink:href="#DejaVuSans-31" transform="translate(373.232422 38.965625)scale(0.7)"/>
      </g>
     </g>
    </g>
    <g id="text_4">
     <!-- $\mathcal{L}$ -->
     <g transform="translate(164.45625 263.474062)scale(0.26 -0.26)">
      <defs>
       <path id="STIXNonUnicode-Italic-e238" d="M 4070 915 
L 4179 800 
Q 3347 -45 2413 -45 
Q 2157 -45 1850 26 
Q 1395 122 1146 122 
Q 1005 122 672 61 
Q 339 0 192 0 
L 230 154 
Q 582 154 730 749 
L 1178 2566 
Q 1286 3008 1516 3353 
Q 1747 3699 2025 3894 
Q 2304 4090 2585 4189 
Q 2867 4288 3123 4288 
Q 3443 4288 3593 4083 
Q 3744 3878 3744 3584 
Q 3744 3347 3593 3200 
Q 3443 3053 3226 3053 
Q 3085 3053 2995 3149 
Q 2906 3245 2906 3379 
Q 2906 3482 2957 3552 
Q 3008 3622 3065 3644 
Q 3123 3667 3174 3705 
Q 3226 3744 3226 3789 
Q 3226 4032 2854 4032 
Q 2522 4032 2310 3785 
Q 2099 3539 1990 3132 
Q 1882 2726 1795 2284 
Q 1709 1843 1549 1363 
Q 1389 883 1158 589 
L 1158 563 
Q 1363 704 1888 704 
Q 2227 704 2460 544 
Q 2694 384 2963 384 
Q 3507 384 4070 915 
z
" transform="scale(0.015625)"/>
      </defs>
      <use xlink:href="#STIXNonUnicode-Italic-e238"/>
     </g>
    </g>
   </g>
   <g id="matplotlib.axis_2">
    <g id="text_5">
     <!-- PDF -->
     <g transform="translate(22.396875 135.40125)rotate(-90)scale(0.2 -0.2)">
      <defs>
       <path id="DejaVuSans-50" d="M 1259 4147 
L 1259 2394 
L 2053 2394 
Q 2494 2394 2734 2622 
Q 2975 2850 2975 3272 
Q 2975 3691 2734 3919 
Q 2494 4147 2053 4147 
L 1259 4147 
z
M 628 4666 
L 2053 4666 
Q 2838 4666 3239 4311 
Q 3641 3956 3641 3272 
Q 3641 2581 3239 2228 
Q 2838 1875 2053 1875 
L 1259 1875 
L 1259 0 
L 628 0 
L 628 4666 
z
" transform="scale(0.015625)"/>
       <path id="DejaVuSans-44" d="M 1259 4147 
L 1259 519 
L 2022 519 
Q 2988 519 3436 956 
Q 3884 1394 3884 2338 
Q 3884 3275 3436 3711 
Q 2988 4147 2022 4147 
L 1259 4147 
z
M 628 4666 
L 1925 4666 
Q 3281 4666 3915 4102 
Q 4550 3538 4550 2338 
Q 4550 1131 3912 565 
Q 3275 0 1925 0 
L 628 0 
L 628 4666 
z
" transform="scale(0.015625)"/>
       <path id="DejaVuSans-46" d="M 628 4666 
L 3309 4666 
L 3309 4134 
L 1259 4134 
L 1259 2759 
L 3109 2759 
L 3109 2228 
L 1259 2228 
L 1259 0 
L 628 0 
L 628 4666 
z
" transform="scale(0.015625)"/>
      </defs>
      <use xlink:href="#DejaVuSans-50"/>
      <use xlink:href="#DejaVuSans-44" x="60.302734"/>
      <use xlink:href="#DejaVuSans-46" x="137.304688"/>
     </g>
    </g>
   </g>
   <g id="line2d_4">
    <path d="M 199.394458 214.113017 
L 166.742985 189.043341 
L 166.419728 188.374134 
L 162.478583 179.202742 
L 161.960513 177.855307 
L 161.12277 175.605899 
L 159.732493 171.68054 
L 155.258301 157.449312 
L 155.197845 157.240869 
L 153.829103 152.412622 
L 150.6665 140.508449 
L 150.603326 140.260867 
L 149.593834 136.257367 
L 144.27745 113.984837 
L 143.359422 109.997356 
L 142.778136 107.460685 
L 141.291176 100.946371 
L 138.214807 87.488286 
L 136.555509 80.335302 
L 135.101944 74.186055 
L 134.939818 73.50868 
L 134.853768 73.149917 
L 133.649801 68.190529 
L 132.939679 65.323469 
L 132.173396 62.283996 
L 128.71608 49.409813 
L 128.538124 48.789604 
L 127.4854 45.216427 
L 127.150915 44.116618 
L 125.810662 39.891426 
L 124.123857 35.012866 
L 122.425592 30.63318 
L 121.931675 29.46483 
L 121.230424 27.890334 
L 120.833153 27.042951 
L 120.480575 26.318281 
L 117.139661 20.769913 
L 116.845429 20.398344 
L 116.617557 20.123839 
L 116.391159 19.862601 
L 114.68457 18.264135 
L 113.877254 17.737169 
L 113.373384 17.483069 
L 112.653483 17.219704 
L 112.429593 17.161674 
L 112.011939 17.083636 
L 109.950807 17.270869 
L 109.465843 17.451881 
L 109.344778 17.505115 
L 108.626189 17.886806 
L 107.941069 18.35455 
L 106.743233 19.411737 
L 105.992954 20.226013 
L 105.930548 20.298933 
L 104.308647 22.467278 
L 104.300667 22.479226 
L 100.736198 28.993681 
L 100.512716 29.476494 
L 100.490241 29.525509 
L 100.474002 29.560974 
L 99.625764 31.473205 
L 99.571837 31.598672 
L 97.561408 36.591572 
L 97.384006 37.060382 
L 97.020728 38.03394 
L 93.764627 47.504805 
L 93.488269 48.364454 
L 93.320078 48.891478 
L 92.487035 51.54301 
L 91.662979 54.229479 
L 91.579524 54.504862 
L 90.840959 56.96701 
L 90.546569 57.96042 
L 89.440037 61.750416 
L 88.436686 65.255676 
L 88.252185 65.906583 
L 87.023043 70.286832 
L 86.967861 70.485122 
L 86.455067 72.333714 
L 86.237254 73.121988 
L 85.865563 74.471032 
L 84.414079 79.778327 
L 82.342562 87.421496 
L 81.164125 91.781779 
L 79.298209 98.6679 
L 78.720499 100.789537 
L 77.983969 103.483918 
L 74.304032 116.688136 
L 73.262072 120.324418 
L 72.627204 122.513195 
L 71.984887 124.705616 
L 70.934414 128.240647 
L 69.589437 132.669117 
L 69.567562 132.740193 
L 67.733858 138.585125 
L 67.172048 140.329597 
L 64.387026 148.638229 
L 60.828719 158.390864 
L 56.024685 169.962958 
L 52.563377 177.169458 
" clip-path="url(#p99af6da401)" style="fill: none; stroke-dasharray: 7.4,3.2; stroke-dashoffset: 0; stroke: #f8a27e; stroke-width: 2"/>
   </g>
   <g id="line2d_5">
    <path d="M 289.39282 214.756364 
L 254.577278 213.077256 
L 251.862112 212.611677 
L 226.303304 200.843807 
L 224.525338 199.319028 
L 207.62886 178.999366 
L 206.549039 177.352519 
L 200.651323 167.73981 
L 196.807527 161.005459 
L 196.588422 160.612819 
L 195.942678 159.450939 
L 191.209439 150.767849 
L 190.509027 149.466125 
L 188.122824 145.019981 
L 186.135207 141.320116 
L 183.597504 136.632378 
L 181.252436 132.36804 
L 177.628588 125.979934 
L 174.057657 120.021231 
L 172.985137 118.312379 
L 171.101538 115.41475 
L 169.669144 113.306676 
L 168.530244 111.69366 
L 167.866874 110.78111 
L 167.482631 110.26188 
L 166.09113 108.440656 
L 164.236124 106.16284 
L 163.701941 105.539946 
L 162.561923 104.261638 
L 162.559288 104.258765 
L 162.342042 104.023207 
L 160.152466 101.796104 
L 158.610662 100.39265 
L 158.487167 100.286262 
L 157.818877 99.726232 
L 157.366147 99.361976 
L 157.036979 99.10486 
L 156.23562 98.506275 
L 155.093985 97.72107 
L 150.336837 95.318653 
L 150.287843 95.301276 
L 148.904775 94.872923 
L 147.685363 94.59477 
L 144.73428 94.305061 
L 143.295236 94.35834 
L 142.945845 94.39026 
L 141.024066 94.696631 
L 139.631842 95.054657 
L 138.159345 95.554782 
L 137.766617 95.708873 
L 136.506748 96.260894 
L 134.983633 97.043182 
L 133.032562 98.222557 
L 132.151058 98.818364 
L 132.069115 98.875688 
L 130.788258 99.813673 
L 128.387554 101.776083 
L 128.362377 101.798019 
L 128.325504 101.830195 
L 128.31561 101.838839 
L 124.943439 105.020468 
L 124.663265 105.304953 
L 123.583704 106.42814 
L 121.980618 108.171641 
L 120.400437 109.972742 
L 119.223091 111.363987 
L 118.820867 111.848372 
L 118.729573 111.958936 
L 118.520151 112.213424 
L 118.063734 112.772136 
L 117.648529 113.285146 
L 117.33533 113.675039 
L 116.987576 114.110819 
L 113.617515 118.476332 
L 112.957332 119.35855 
L 110.937943 122.103195 
L 109.887975 123.554504 
L 108.516218 125.471751 
L 108.30565 125.76795 
L 108.194712 125.92419 
L 107.412437 127.029396 
L 107.159187 127.388425 
L 102.502947 134.065641 
L 102.055943 134.711423 
L 101.178625 135.979752 
L 97.992816 140.583004 
L 94.417865 145.70792 
L 88.350855 154.178024 
L 86.982654 156.032136 
L 86.087313 157.232156 
L 85.897066 157.485731 
L 85.709663 157.735022 
L 85.652741 157.810644 
L 85.061057 158.593985 
L 84.314965 159.574516 
L 84.034613 159.940831 
L 82.448199 161.991026 
L 78.395344 167.042783 
L 74.855025 171.220209 
L 64.128396 182.422809 
" clip-path="url(#p99af6da401)" style="fill: none; stroke: #f8a27e; stroke-width: 3; stroke-linecap: square"/>
   </g>
   <g id="line2d_6">
    <path d="M 248.650776 212.957011 
L 247.381842 212.73896 
L 235.033057 209.236483 
L 234.772821 209.129121 
L 226.748501 204.929703 
L 222.164869 201.650321 
L 221.377287 201.014973 
L 202.641543 179.123847 
L 201.264337 177.009694 
L 196.070179 168.50885 
L 194.501948 165.796984 
L 194.406291 165.629657 
L 193.927281 164.788612 
L 190.967126 159.485312 
L 189.575101 156.937384 
L 186.481481 151.18526 
L 182.951169 144.537301 
L 177.397037 134.133297 
L 170.203644 121.358312 
L 168.894978 119.181619 
L 166.135224 114.788244 
L 165.097497 113.212518 
L 162.461131 109.417783 
L 158.307936 104.113485 
L 156.048916 101.609582 
L 155.530346 101.075019 
L 153.714188 99.32508 
L 152.137926 97.963995 
L 151.133658 97.174948 
L 150.401325 96.638432 
L 149.650988 96.123031 
L 149.624937 96.105764 
L 148.824959 95.596076 
L 148.475996 95.386258 
L 143.616 93.26233 
L 143.297838 93.175459 
L 142.889953 93.073468 
L 142.469147 92.979277 
L 142.075892 92.901368 
L 141.935589 92.875935 
L 141.438258 92.795775 
L 138.795204 92.629751 
L 138.73588 92.63101 
L 137.018091 92.761142 
L 136.647619 92.812773 
L 134.107275 93.387782 
L 132.473488 93.956866 
L 132.288622 94.030848 
L 131.628288 94.310779 
L 131.33575 94.442563 
L 130.460178 94.865148 
L 129.941222 95.135298 
L 129.26658 95.508056 
L 128.599943 95.899986 
L 126.731154 97.120419 
L 126.521939 97.267949 
L 125.194428 98.253587 
L 125.179888 98.264849 
L 124.79625 98.565583 
L 124.578253 98.739533 
L 123.635521 99.516886 
L 120.358106 102.520982 
L 119.545793 103.333592 
L 118.195522 104.739866 
L 117.876868 105.081483 
L 117.697467 105.275403 
L 113.687847 109.887506 
L 113.049657 110.666646 
L 112.933082 110.810185 
L 111.828213 112.188594 
L 110.138592 114.355541 
L 109.491698 115.20262 
L 108.674225 116.28582 
L 108.328501 116.748008 
L 107.917478 117.300516 
L 106.328657 119.465106 
L 104.930491 121.404042 
L 104.232373 122.382682 
L 101.404792 126.405306 
L 100.81729 127.25086 
L 100.755891 127.339386 
L 100.529237 127.66643 
L 99.235078 129.540498 
L 96.976889 132.83075 
L 92.785453 138.959085 
L 91.09692 141.418899 
L 89.042046 144.393745 
L 88.322259 145.429368 
L 87.580145 146.492995 
L 86.707724 147.737509 
L 86.257026 148.377754 
L 82.372647 153.807513 
L 81.699625 154.730162 
L 81.300717 155.274236 
L 77.134249 160.821902 
L 73.598436 165.315715 
L 70.870637 168.634487 
L 67.059678 173.041014 
L 66.20711 173.988908 
L 58.207294 182.188074 
" clip-path="url(#p99af6da401)" style="fill: none; stroke: #f8a27e; stroke-width: 8; stroke-linecap: square"/>
   </g>
   <g id="patch_3">
    <path d="M 34.05625 224.64 
L 34.05625 7.2 
" style="fill: none; stroke: #000000; stroke-width: 0.8; stroke-linejoin: miter; stroke-linecap: square"/>
   </g>
   <g id="patch_4">
    <path d="M 34.05625 224.64 
L 313.05625 224.64 
" style="fill: none; stroke: #000000; stroke-width: 0.8; stroke-linejoin: miter; stroke-linecap: square"/>
   </g>
   <g id="line2d_7">
    <path d="M 278.405404 214.547961 
L 262.39065 213.663324 
L 241.922169 209.384595 
L 240.711371 208.934474 
L 233.345306 205.533051 
L 209.840723 185.329697 
L 209.284019 184.66712 
L 208.418768 183.621518 
L 205.239513 179.620462 
L 204.346873 178.454169 
L 199.845677 172.315017 
L 198.430509 170.305054 
L 195.762603 166.428938 
L 185.873957 151.447184 
L 183.113193 147.220611 
L 181.52674 144.808606 
L 174.796208 134.878104 
L 170.867254 129.443169 
L 170.363194 128.771607 
L 169.892431 128.150237 
L 169.646938 127.828489 
L 169.179338 127.220072 
L 167.313275 124.85243 
L 166.372579 123.697444 
L 165.427542 122.564614 
L 163.835613 120.721557 
L 162.858212 119.632281 
L 161.403204 118.073066 
L 156.825645 113.68711 
L 156.33268 113.264306 
L 156.101492 113.069461 
L 152.440737 110.284086 
L 151.482566 109.650385 
L 145.882887 106.766198 
L 145.856155 106.755833 
L 145.275703 106.538805 
L 144.660454 106.32556 
L 143.747584 106.041029 
L 142.968171 105.828227 
L 142.734705 105.769883 
L 142.613932 105.740678 
L 142.255776 105.657982 
L 139.585276 105.225273 
L 136.405221 105.128659 
L 134.876334 105.241285 
L 134.641355 105.267607 
L 133.444144 105.438568 
L 127.438511 107.193562 
L 126.851672 107.441862 
L 126.845854 107.444389 
L 126.065826 107.794765 
L 125.721481 107.956669 
L 124.574185 108.527503 
L 123.881875 108.894923 
L 122.152615 109.885917 
L 122.028332 109.96108 
L 121.116553 110.528236 
L 117.458364 113.06949 
L 116.087778 114.124289 
L 115.047423 114.959693 
L 115.016055 114.985333 
L 114.772092 115.18563 
L 113.969356 115.855619 
L 112.788193 116.870998 
L 111.279514 118.216555 
L 108.514697 120.81247 
L 107.423097 121.879656 
L 107.085506 122.214179 
L 106.025437 123.27772 
L 105.896005 123.408896 
L 104.30281 125.045736 
L 102.509922 126.933053 
L 100.849544 128.718654 
L 99.688284 129.986501 
L 97.153882 132.799491 
L 96.030947 134.062797 
L 94.329148 135.99307 
L 94.042482 136.319816 
L 92.904947 137.620159 
L 92.023177 138.631664 
L 88.17844 143.062967 
L 87.515959 143.827754 
L 87.14294 144.25829 
L 86.918096 144.517751 
L 86.660461 144.81499 
L 85.566114 146.076544 
L 85.430784 146.232406 
L 83.545727 148.398754 
L 82.735481 149.326495 
L 79.083833 153.471013 
L 78.89031 153.68863 
L 78.856911 153.726164 
L 72.293962 160.94178 
L 71.263129 162.04149 
L 70.860416 162.4683 
L 70.745878 162.589397 
L 66.938438 166.536822 
L 62.92192 170.523812 
L 57.880952 175.246123 
L 46.738068 184.487878 
" clip-path="url(#p99af6da401)" style="fill: none; stroke-dasharray: 7.4,3.2; stroke-dashoffset: 0; stroke: #103f60; stroke-width: 2"/>
   </g>
   <g id="line2d_8">
    <path d="M 300.374432 207.938192 
L 295.019414 205.590776 
L 293.857652 205.01268 
L 282.262523 197.795061 
L 281.932309 197.550004 
L 279.02604 195.299091 
L 278.346252 194.748423 
L 275.199922 192.083123 
L 272.731813 189.862375 
L 268.016535 185.324933 
L 267.932822 185.24112 
L 265.637302 182.902331 
L 264.115591 181.311297 
L 260.643444 177.574767 
L 258.209241 174.881282 
L 252.40231 168.292475 
L 249.73582 165.229611 
L 248.451867 163.75485 
L 248.360887 163.650439 
L 248.174323 163.436386 
L 244.382838 159.112302 
L 241.088115 155.425615 
L 232.620978 146.528534 
L 231.973911 145.895314 
L 224.705695 139.385175 
L 224.514851 139.230746 
L 224.458282 139.185147 
L 224.243958 139.013119 
L 222.705551 137.812897 
L 220.469999 136.180728 
L 220.450316 136.166964 
L 219.151667 135.282821 
L 217.632715 134.309713 
L 217.330616 134.124163 
L 213.785606 132.150181 
L 212.882504 131.708413 
L 211.887578 131.251009 
L 210.386938 130.619717 
L 209.882404 130.423412 
L 208.285759 129.8554 
L 205.570225 129.076129 
L 202.225631 128.440534 
L 202.060456 128.418394 
L 199.935748 128.210705 
L 199.638427 128.193003 
L 198.305679 128.147659 
L 197.16821 128.152631 
L 196.691756 128.166565 
L 195.089518 128.264222 
L 193.642324 128.418873 
L 193.044114 128.500951 
L 192.137991 128.645233 
L 191.629589 128.736614 
L 191.074903 128.84478 
L 190.54591 128.956099 
L 190.434245 128.980609 
L 187.745141 129.67539 
L 185.559228 130.383513 
L 185.301184 130.475298 
L 185.123225 130.539586 
L 184.115616 130.918643 
L 183.309317 131.240114 
L 180.115453 132.665505 
L 177.921371 133.777599 
L 176.926769 134.315164 
L 173.443946 136.350235 
L 172.924206 136.673097 
L 172.008737 137.253143 
L 169.284557 139.060061 
L 168.7984 139.394496 
L 167.917295 140.009283 
L 164.806048 142.262927 
L 161.922121 144.453322 
L 159.93125 146.013469 
L 159.205518 146.590709 
L 157.359938 148.076785 
L 154.823078 150.155844 
L 153.029351 151.646259 
L 151.583947 152.856801 
L 150.312883 153.926849 
L 149.75018 154.401889 
L 149.196812 154.869704 
L 145.695144 157.83919 
L 138.869749 163.608719 
L 137.498453 164.754862 
L 136.441669 165.633524 
L 134.288143 167.409688 
L 124.760784 174.959883 
L 123.363477 176.015912 
L 122.911858 176.354061 
L 119.845981 178.607115 
L 116.819324 180.755469 
L 110.742786 184.827275 
L 109.011013 185.926595 
L 105.315283 188.179963 
L 100.005807 191.194957 
L 90.089381 196.132814 
L 87.605098 197.232841 
L 68.626966 204.000975 
L 66.117801 204.701116 
" clip-path="url(#p99af6da401)" style="fill: none; stroke: #103f60; stroke-width: 3; stroke-linecap: square"/>
   </g>
   <g id="line2d_9">
    <path d="M 294.95629 211.956512 
L 288.538946 210.438326 
L 286.877971 209.955419 
L 281.224212 207.99175 
L 274.39914 204.878678 
L 266.95458 200.43672 
L 264.817107 198.947044 
L 262.783814 197.43964 
L 262.092741 196.907253 
L 260.839735 195.916112 
L 248.578216 184.539827 
L 244.215148 179.841513 
L 242.295178 177.6875 
L 240.574843 175.718944 
L 239.832582 174.859464 
L 233.533489 167.379504 
L 230.040331 163.147732 
L 221.893635 153.352025 
L 217.904817 148.735552 
L 211.785149 142.092169 
L 211.421957 141.718965 
L 208.82124 139.127138 
L 207.404571 137.778667 
L 206.460404 136.906409 
L 205.998413 136.487573 
L 205.460592 136.006732 
L 205.22474 135.798186 
L 203.012913 133.913288 
L 196.137689 128.938862 
L 189.953988 125.719254 
L 189.836254 125.67011 
L 188.864583 125.282183 
L 186.976876 124.618972 
L 186.175724 124.37374 
L 183.605712 123.733179 
L 182.959236 123.607104 
L 182.018677 123.448785 
L 178.762066 123.129125 
L 177.115007 123.101025 
L 174.757662 123.214001 
L 174.357218 123.250857 
L 173.878151 123.301606 
L 173.407222 123.358525 
L 173.302687 123.372101 
L 172.610895 123.470515 
L 172.543775 123.480853 
L 171.765853 123.610788 
L 170.558275 123.849023 
L 169.500166 124.09373 
L 167.985869 124.501152 
L 166.141263 125.086028 
L 165.900823 125.169266 
L 164.603108 125.64574 
L 163.561931 126.060599 
L 162.270149 126.614497 
L 162.146173 126.669893 
L 161.112061 127.146904 
L 160.769905 127.310531 
L 157.329367 129.109059 
L 157.128713 129.222215 
L 155.547022 130.144353 
L 155.161553 130.377002 
L 154.229725 130.951792 
L 154.155061 130.998594 
L 153.745194 131.257447 
L 153.036621 131.712562 
L 152.672646 131.950022 
L 147.497845 135.574194 
L 146.81334 136.085221 
L 146.111473 136.616098 
L 142.390877 139.536431 
L 141.961088 139.884234 
L 140.555917 141.034749 
L 140.404505 141.15989 
L 140.06871 141.438196 
L 138.970825 142.355283 
L 138.605784 142.662528 
L 136.552095 144.410616 
L 135.924972 144.950459 
L 132.84821 147.632675 
L 131.476013 148.843617 
L 131.184356 149.101928 
L 130.501126 149.708155 
L 130.187602 149.986826 
L 127.894766 152.032059 
L 127.454681 152.42573 
L 126.083358 153.653765 
L 123.625567 155.856182 
L 119.32147 159.697385 
L 111.105201 166.859189 
L 109.446759 168.262626 
L 106.965887 170.328728 
L 106.187145 170.968466 
L 104.649624 172.218458 
L 92.130164 181.664495 
L 88.559675 184.095675 
L 85.528283 186.06288 
L 81.900204 188.299105 
L 71.122726 194.187217 
L 57.3853 200.141988 
" clip-path="url(#p99af6da401)" style="fill: none; stroke: #103f60; stroke-width: 8; stroke-linecap: square"/>
   </g>
  </g>
 </g>
 <defs>
  <clipPath id="p99af6da401">
   <rect x="34.05625" y="7.2" width="279" height="217.44"/>
  </clipPath>
 </defs>
</svg>
